Format                           : MPEG-TS
File size                        : 979 MiB
Duration                         : 4mn 39s
Overall bit rate                 : 29.3 Mbps

Video
ID                               : 1465 (0x5B9)
Menu ID                          : 1 (0x1)
Format                           : MPEG Video
Format version                   : Version 2
Format profile                   : Main@High
Format settings, BVOP            : Yes
Format settings, Matrix          : Custom
Codec ID                         : 2
Duration                         : 4mn 40s
Bit rate                         : 26.3 Mbps
Width                            : 1 920 pixels
Height                           : 1 080 pixels
Display aspect ratio             : 16:9
Frame rate                       : 25.000 fps
Color space                      : YUV
Chroma subsampling               : 4:2:0
Bit depth                        : 8 bits
Scan type                        : Interlaced
Scan order                       : Top Field First
Compression mode                 : Lossy
Bits/(Pixel*Frame)               : 0.508
Stream size                      : 879 MiB (90%)

Audio #1
ID                               : 258 (0x102)
Menu ID                          : 1 (0x1)
Format                           : MPEG Audio
Format version                   : Version 1
Format profile                   : Layer 2
Codec ID                         : 4
Duration                         : 4mn 40s
Bit rate mode                    : Constant
Bit rate                         : 384 Kbps
Channel(s)                       : 2 channels
Sampling rate                    : 48.0 KHz
Compression mode                 : Lossy
Delay relative to video          : -11ms
Stream size                      : 12.8 MiB (1%)
Language                         : English

Audio #2
ID                               : 259 (0x103)
Menu ID                          : 1 (0x1)
Format                           : MPEG Audio
Format version                   : Version 1
Format profile                   : Layer 2
Codec ID                         : 4
Duration                         : 4mn 40s
Bit rate mode                    : Constant
Bit rate                         : 384 Kbps
Channel(s)                       : 2 channels
Sampling rate                    : 48.0 KHz
Compression mode                 : Lossy
Delay relative to video          : -80ms
Stream size                      : 12.8 MiB (1%)
Language                         : English
